<svg data-v-fde0c5aa="" xmlns="http://www.w3.org/2000/svg" viewBox="0 0 300 300" class="font"><!----><defs data-v-fde0c5aa=""><!----></defs><rect data-v-fde0c5aa="" fill="transparent" x="0" y="0" width="300px" height="300px" class="logo-background-square"></rect><defs data-v-fde0c5aa=""><linearGradient data-v-fde0c5aa="" gradientTransform="rotate(25)" id="c9c45458-87e2-4165-a12a-a9f1efc70734" x1="0%" y1="0%" x2="100%" y2="0%"><stop data-v-fde0c5aa="" offset="0%" stop-color="#181B80" stop-opacity="1"></stop><stop data-v-fde0c5aa="" offset="100%" stop-color="#181ED9" stop-opacity="1"></stop></linearGradient></defs><g data-v-fde0c5aa="" id="fa8f3f52-1179-44f4-b116-7308e47c2c3d" fill="url(#c9c45458-87e2-4165-a12a-a9f1efc70734)" transform="matrix(3.130335854029749,0,0,3.130335854029749,38.68525888906441,125.22339034210692)"><path d="M7.10 10.28L8.22 10.28L8.16 12.40L8.16 12.40Q7.57 12.73 6.86 12.89L6.86 12.89L6.86 12.89Q6.15 13.06 5.35 13.06L5.35 13.06L5.35 13.06Q4.27 13.06 3.37 12.76L3.37 12.76L3.37 12.76Q2.46 12.46 1.81 11.86L1.81 11.86L1.81 11.86Q1.15 11.26 0.78 10.36L0.78 10.36L0.78 10.36Q0.42 9.46 0.42 8.27L0.42 8.27L0.42 8.27Q0.42 7.08 0.81 6.18L0.81 6.18L0.81 6.18Q1.19 5.28 1.86 4.68L1.86 4.68L1.86 4.68Q2.53 4.07 3.46 3.77L3.46 3.77L3.46 3.77Q4.40 3.47 5.49 3.47L5.49 3.47L5.49 3.47Q6.16 3.47 6.77 3.62L6.77 3.62L6.77 3.62Q7.38 3.77 8.02 4.13L8.02 4.13L8.08 6.26L6.97 6.26L6.69 4.49L6.69 4.49Q6.10 4.24 5.50 4.24L5.50 4.24L5.50 4.24Q4.89 4.24 4.35 4.50L4.35 4.50L4.35 4.50Q3.81 4.76 3.41 5.27L3.41 5.27L3.41 5.27Q3.01 5.78 2.79 6.54L2.79 6.54L2.79 6.54Q2.56 7.29 2.56 8.27L2.56 8.27L2.56 8.27Q2.56 9.25 2.79 10.00L2.79 10.00L2.79 10.00Q3.01 10.75 3.41 11.26L3.41 11.26L3.41 11.26Q3.81 11.77 4.35 12.03L4.35 12.03L4.35 12.03Q4.89 12.29 5.50 12.29L5.50 12.29L5.50 12.29Q6.16 12.29 6.83 12.04L6.83 12.04L7.10 10.28ZM12.67 6.58L12.67 6.58L12.67 6.58Q11.20 6.58 11.20 9.48L11.20 9.48L11.20 9.48Q11.20 10.96 11.57 11.66L11.57 11.66L11.57 11.66Q11.94 12.36 12.67 12.36L12.67 12.36L12.67 12.36Q13.41 12.36 13.78 11.66L13.78 11.66L13.78 11.66Q14.14 10.96 14.14 9.48L14.14 9.48L14.14 9.48Q14.14 6.58 12.67 6.58ZM12.67 5.88L12.67 5.88L12.67 5.88Q13.37 5.88 14.01 6.13L14.01 6.13L14.01 6.13Q14.64 6.38 15.13 6.85L15.13 6.85L15.13 6.85Q15.62 7.32 15.92 7.99L15.92 7.99L15.92 7.99Q16.21 8.65 16.21 9.49L16.21 9.49L16.21 9.49Q16.21 10.33 15.95 10.99L15.95 10.99L15.95 10.99Q15.68 11.65 15.20 12.11L15.20 12.11L15.20 12.11Q14.73 12.57 14.08 12.82L14.08 12.82L14.08 12.82Q13.43 13.06 12.67 13.06L12.67 13.06L12.67 13.06Q11.91 13.06 11.26 12.82L11.26 12.82L11.26 12.82Q10.61 12.57 10.14 12.11L10.14 12.11L10.14 12.11Q9.67 11.65 9.40 10.99L9.40 10.99L9.40 10.99Q9.13 10.33 9.13 9.49L9.13 9.49L9.13 9.49Q9.13 8.65 9.42 7.99L9.42 7.99L9.42 7.99Q9.70 7.32 10.19 6.85L10.19 6.85L10.19 6.85Q10.68 6.38 11.33 6.13L11.33 6.13L11.33 6.13Q11.97 5.88 12.67 5.88ZM22.02 11.49L22.02 7.42L22.02 7.42Q21.73 7.21 21.44 7.08L21.44 7.08L21.44 7.08Q21.15 6.96 20.86 6.96L20.86 6.96L20.86 6.96Q20.55 6.96 20.27 7.11L20.27 7.11L20.27 7.11Q19.99 7.27 19.78 7.57L19.78 7.57L19.78 7.57Q19.56 7.88 19.43 8.35L19.43 8.35L19.43 8.35Q19.29 8.82 19.29 9.46L19.29 9.46L19.29 9.46Q19.29 10.74 19.72 11.35L19.72 11.35L19.72 11.35Q20.15 11.97 20.78 11.97L20.78 11.97L20.78 11.97Q21.08 11.97 21.40 11.84L21.40 11.84L21.40 11.84Q21.71 11.70 22.02 11.49L22.02 11.49ZM23.93 12.07L24.74 12.24L24.74 12.85L22.19 12.99L22.08 12.17L22.08 12.17Q21.66 12.60 21.17 12.83L21.17 12.83L21.17 12.83Q20.68 13.06 20.03 13.06L20.03 13.06L20.03 13.06Q19.45 13.06 18.94 12.84L18.94 12.84L18.94 12.84Q18.42 12.61 18.05 12.17L18.05 12.17L18.05 12.17Q17.68 11.72 17.47 11.05L17.47 11.05L17.47 11.05Q17.26 10.39 17.26 9.51L17.26 9.51L17.26 9.51Q17.26 8.67 17.49 7.99L17.49 7.99L17.49 7.99Q17.72 7.32 18.13 6.85L18.13 6.85L18.13 6.85Q18.54 6.38 19.08 6.13L19.08 6.13L19.08 6.13Q19.61 5.88 20.24 5.88L20.24 5.88L20.24 5.88Q20.83 5.88 21.28 6.08L21.28 6.08L21.28 6.08Q21.73 6.27 22.09 6.64L22.09 6.64L22.09 4.10L20.97 3.96L20.97 3.40L23.79 2.77L23.98 2.88L23.93 4.87L23.93 12.07ZM27.59 8.86L29.27 8.86L29.27 8.86Q29.78 8.86 29.97 8.65L29.97 8.65L29.97 8.65Q30.16 8.44 30.16 7.99L30.16 7.99L30.16 7.99Q30.16 7.32 29.88 6.95L29.88 6.95L29.88 6.95Q29.60 6.58 29.15 6.58L29.15 6.58L29.15 6.58Q28.91 6.58 28.66 6.69L28.66 6.69L28.66 6.69Q28.41 6.80 28.19 7.07L28.19 7.07L28.19 7.07Q27.97 7.34 27.81 7.78L27.81 7.78L27.81 7.78Q27.65 8.22 27.59 8.86L27.59 8.86ZM31.88 9.56L27.58 9.56L27.58 9.56Q27.62 10.81 28.19 11.39L28.19 11.39L28.19 11.39Q28.76 11.97 29.61 11.97L29.61 11.97L29.61 11.97Q30.23 11.97 30.63 11.70L30.63 11.70L30.63 11.70Q31.02 11.42 31.35 10.92L31.35 10.92L31.82 11.19L31.82 11.19Q31.54 12.11 30.77 12.59L30.77 12.59L30.77 12.59Q30.00 13.06 28.94 13.06L28.94 13.06L28.94 13.06Q28.18 13.06 27.55 12.82L27.55 12.82L27.55 12.82Q26.92 12.59 26.48 12.13L26.48 12.13L26.48 12.13Q26.04 11.68 25.80 11.01L25.80 11.01L25.80 11.01Q25.55 10.35 25.55 9.49L25.55 9.49L25.55 9.49Q25.55 8.69 25.82 8.04L25.82 8.04L25.82 8.04Q26.08 7.38 26.55 6.90L26.55 6.90L26.55 6.90Q27.02 6.41 27.66 6.15L27.66 6.15L27.66 6.15Q28.31 5.88 29.05 5.88L29.05 5.88L29.05 5.88Q29.72 5.88 30.26 6.10L30.26 6.10L30.26 6.10Q30.80 6.31 31.18 6.71L31.18 6.71L31.18 6.71Q31.56 7.10 31.76 7.64L31.76 7.64L31.76 7.64Q31.96 8.19 31.96 8.83L31.96 8.83L31.96 8.83Q31.96 9.23 31.88 9.56L31.88 9.56ZM44.80 4.38L43.67 4.51L43.67 4.51Q43.64 5.38 43.64 6.25L43.64 6.25L43.64 6.25Q43.64 7.13 43.64 8.02L43.64 8.02L43.64 8.51L43.64 8.51Q43.64 9.39 43.64 10.27L43.64 10.27L43.64 10.27Q43.64 11.14 43.67 12.03L43.67 12.03L44.80 12.15L44.80 12.85L40.43 12.85L40.43 12.15L41.57 12.03L41.57 12.03Q41.59 11.16 41.59 10.28L41.59 10.28L41.59 10.28Q41.59 9.41 41.59 8.51L41.59 8.51L41.59 6.05L38.46 12.85L37.90 12.85L34.73 6.06L34.73 11.97L36.05 12.15L36.05 12.85L32.65 12.85L32.65 12.15L33.96 11.97L33.96 4.51L32.80 4.38L32.80 3.68L35.62 3.68L38.78 10.26L41.86 3.68L44.80 3.68L44.80 4.38ZM49.27 11.61L49.27 9.24L49.27 9.24Q49 9.31 48.77 9.39L48.77 9.39L48.77 9.39Q48.54 9.46 48.37 9.53L48.37 9.53L48.37 9.53Q47.75 9.77 47.52 10.14L47.52 10.14L47.52 10.14Q47.28 10.50 47.28 10.95L47.28 10.95L47.28 10.95Q47.28 11.23 47.36 11.40L47.36 11.40L47.36 11.40Q47.43 11.56 47.54 11.68L47.54 11.68L47.54 11.68Q47.84 11.97 48.33 11.97L48.33 11.97L48.33 11.97Q48.55 11.97 48.76 11.89L48.76 11.89L48.76 11.89Q48.97 11.82 49.27 11.61L49.27 11.61ZM52.01 11.70L52.37 11.97L52.37 11.97Q52.09 12.54 51.74 12.77L51.74 12.77L51.74 12.77Q51.38 12.99 50.85 12.99L50.85 12.99L50.85 12.99Q50.27 12.99 49.90 12.77L49.90 12.77L49.90 12.77Q49.52 12.54 49.36 12.18L49.36 12.18L49.36 12.18Q48.89 12.61 48.45 12.84L48.45 12.84L48.45 12.84Q48.01 13.06 47.35 13.06L47.35 13.06L47.35 13.06Q46.51 13.06 45.98 12.63L45.98 12.63L45.98 12.63Q45.46 12.21 45.46 11.38L45.46 11.38L45.46 11.38Q45.46 11.06 45.56 10.75L45.56 10.75L45.56 10.75Q45.67 10.43 45.96 10.13L45.96 10.13L45.96 10.13Q46.24 9.83 46.75 9.55L46.75 9.55L46.75 9.55Q47.25 9.27 48.05 9.00L48.05 9.00L48.05 9.00Q48.29 8.92 48.61 8.83L48.61 8.83L48.61 8.83Q48.93 8.74 49.27 8.64L49.27 8.64L49.27 8.22L49.27 8.22Q49.27 7.34 49 6.96L49 6.96L49 6.96Q48.73 6.58 48.06 6.58L48.06 6.58L48.06 6.58Q47.95 6.58 47.85 6.59L47.85 6.59L47.85 6.59Q47.74 6.59 47.63 6.61L47.63 6.61L47.52 7.42L47.52 7.42Q47.45 7.97 47.18 8.23L47.18 8.23L47.18 8.23Q46.91 8.50 46.55 8.50L46.55 8.50L46.55 8.50Q46.23 8.50 46.00 8.30L46.00 8.30L46.00 8.30Q45.77 8.11 45.70 7.78L45.70 7.78L45.70 7.78Q45.79 6.96 46.58 6.42L46.58 6.42L46.58 6.42Q47.36 5.88 48.71 5.88L48.71 5.88L48.71 5.88Q49.36 5.88 49.83 6.03L49.83 6.03L49.83 6.03Q50.30 6.17 50.60 6.50L50.60 6.50L50.60 6.50Q50.89 6.83 51.03 7.37L51.03 7.37L51.03 7.37Q51.17 7.91 51.17 8.69L51.17 8.69L51.17 11.58L51.17 11.58Q51.17 11.80 51.25 11.94L51.25 11.94L51.25 11.94Q51.34 12.08 51.52 12.08L51.52 12.08L51.52 12.08Q51.66 12.08 51.74 12.00L51.74 12.00L51.74 12.00Q51.83 11.91 51.94 11.79L51.94 11.79L52.01 11.70ZM56.90 11.52L57.30 12.00L57.30 12.00Q57.04 12.40 56.53 12.70L56.53 12.70L56.53 12.70Q56.03 12.99 55.27 12.99L55.27 12.99L55.27 12.99Q54.42 12.99 53.92 12.57L53.92 12.57L53.92 12.57Q53.42 12.15 53.42 11.27L53.42 11.27L53.42 11.27Q53.42 10.84 53.43 10.52L53.43 10.52L53.43 10.52Q53.44 10.21 53.44 9.80L53.44 9.80L53.44 7.03L52.50 7.03L52.50 6.26L53.61 6.12L54.00 4.17L55.34 4.17L55.34 6.13L56.94 6.13L56.94 7.03L55.34 7.03L55.34 10.88L55.34 10.88Q55.34 11.40 55.55 11.63L55.55 11.63L55.55 11.63Q55.75 11.86 56.07 11.86L56.07 11.86L56.07 11.86Q56.21 11.86 56.43 11.79L56.43 11.79L56.43 11.79Q56.64 11.73 56.90 11.52L56.90 11.52ZM59.82 8.86L61.50 8.86L61.50 8.86Q62.01 8.86 62.20 8.65L62.20 8.65L62.20 8.65Q62.38 8.44 62.38 7.99L62.38 7.99L62.38 7.99Q62.38 7.32 62.10 6.95L62.10 6.95L62.10 6.95Q61.82 6.58 61.38 6.58L61.38 6.58L61.38 6.58Q61.14 6.58 60.89 6.69L60.89 6.69L60.89 6.69Q60.63 6.80 60.42 7.07L60.42 7.07L60.42 7.07Q60.20 7.34 60.04 7.78L60.04 7.78L60.04 7.78Q59.88 8.22 59.82 8.86L59.82 8.86ZM64.11 9.56L59.81 9.56L59.81 9.56Q59.85 10.81 60.42 11.39L60.42 11.39L60.42 11.39Q60.98 11.97 61.84 11.97L61.84 11.97L61.84 11.97Q62.45 11.97 62.85 11.70L62.85 11.70L62.85 11.70Q63.25 11.42 63.57 10.92L63.57 10.92L64.05 11.19L64.05 11.19Q63.77 12.11 63 12.59L63 12.59L63 12.59Q62.23 13.06 61.17 13.06L61.17 13.06L61.17 13.06Q60.41 13.06 59.78 12.82L59.78 12.82L59.78 12.82Q59.15 12.59 58.71 12.13L58.71 12.13L58.71 12.13Q58.27 11.68 58.02 11.01L58.02 11.01L58.02 11.01Q57.78 10.35 57.78 9.49L57.78 9.49L57.78 9.49Q57.78 8.69 58.04 8.04L58.04 8.04L58.04 8.04Q58.31 7.38 58.78 6.90L58.78 6.90L58.78 6.90Q59.25 6.41 59.89 6.15L59.89 6.15L59.89 6.15Q60.54 5.88 61.28 5.88L61.28 5.88L61.28 5.88Q61.95 5.88 62.49 6.10L62.49 6.10L62.49 6.10Q63.03 6.31 63.41 6.71L63.41 6.71L63.41 6.71Q63.78 7.10 63.99 7.64L63.99 7.64L63.99 7.64Q64.19 8.19 64.19 8.83L64.19 8.83L64.19 8.83Q64.19 9.23 64.11 9.56L64.11 9.56ZM68.36 8.54L68.84 8.71L68.84 8.71Q69.38 8.90 69.75 9.13L69.75 9.13L69.75 9.13Q70.11 9.37 70.32 9.63L70.32 9.63L70.32 9.63Q70.53 9.90 70.62 10.20L70.62 10.20L70.62 10.20Q70.70 10.50 70.70 10.84L70.70 10.84L70.70 10.84Q70.70 11.34 70.49 11.75L70.49 11.75L70.49 11.75Q70.28 12.15 69.89 12.45L69.89 12.45L69.89 12.45Q69.50 12.74 68.95 12.90L68.95 12.90L68.95 12.90Q68.40 13.06 67.72 13.06L67.72 13.06L67.72 13.06Q66.99 13.06 66.44 12.89L66.44 12.89L66.44 12.89Q65.88 12.73 65.30 12.39L65.30 12.39L65.30 10.78L66.37 10.78L66.56 12.00L66.56 12.00Q66.88 12.18 67.15 12.26L67.15 12.26L67.15 12.26Q67.42 12.33 67.72 12.33L67.72 12.33L67.72 12.33Q68.39 12.33 68.70 12.11L68.70 12.11L68.70 12.11Q69.02 11.89 69.02 11.42L69.02 11.42L69.02 11.42Q69.02 11.23 68.96 11.08L68.96 11.08L68.96 11.08Q68.89 10.93 68.74 10.81L68.74 10.81L68.74 10.81Q68.59 10.68 68.33 10.56L68.33 10.56L68.33 10.56Q68.07 10.43 67.66 10.28L67.66 10.28L67.02 10.02L67.02 10.02Q66.18 9.70 65.75 9.19L65.75 9.19L65.75 9.19Q65.32 8.68 65.32 7.94L65.32 7.94L65.32 7.94Q65.32 7.01 66.03 6.45L66.03 6.45L66.03 6.45Q66.74 5.88 68.18 5.88L68.18 5.88L68.18 5.88Q68.81 5.88 69.30 6.02L69.30 6.02L69.30 6.02Q69.79 6.16 70.31 6.41L70.31 6.41L70.22 7.95L69.16 7.95L68.95 6.79L68.95 6.79Q68.77 6.72 68.57 6.66L68.57 6.66L68.57 6.66Q68.38 6.61 68.10 6.61L68.10 6.61L68.10 6.61Q67.59 6.61 67.28 6.84L67.28 6.84L67.28 6.84Q66.98 7.07 66.98 7.48L66.98 7.48L66.98 7.48Q66.98 7.63 67.03 7.76L67.03 7.76L67.03 7.76Q67.09 7.90 67.24 8.02L67.24 8.02L67.24 8.02Q67.40 8.15 67.67 8.27L67.67 8.27L67.67 8.27Q67.94 8.40 68.36 8.54L68.36 8.54Z"></path></g><!----><!----></svg>